<svg width="43" height="43" viewBox="0 0 43 43" fill="none" xmlns="http://www.w3.org/2000/svg">
<g clip-path="url(#clip0_22_54)">
<rect width="43" height="43" fill="white"/>
<rect width="43" height="43" fill="#EEEEEE"/>
<path d="M17.97 34H14.58V13.06H23.61C25.49 13.06 26.97 13.63 28.05 14.77C29.13 15.89 29.67 17.42 29.67 19.36C29.67 20.86 29.32 22.11 28.62 23.11C27.94 24.09 26.93 24.78 25.59 25.18L30.12 34H26.34L22.14 25.54H17.97V34ZM23.37 22.69C24.23 22.69 24.9 22.47 25.38 22.03C25.86 21.57 26.1 20.92 26.1 20.08V18.64C26.1 17.8 25.86 17.16 25.38 16.72C24.9 16.26 24.23 16.03 23.37 16.03H17.97V22.69H23.37Z" fill="#282828"/>
<path d="M17.97 34V35H18.97V34H17.97ZM14.58 34H13.58V35H14.58V34ZM14.58 13.06V12.06H13.58V13.06H14.58ZM28.05 14.77L27.324 15.4578L27.3302 15.4641L28.05 14.77ZM28.62 23.11L27.8008 22.5365L27.7984 22.5399L28.62 23.11ZM25.59 25.18L25.304 24.2218L24.1505 24.5661L24.7005 25.6369L25.59 25.18ZM30.12 34V35H31.7578L31.0095 33.5431L30.12 34ZM26.34 34L25.4443 34.4447L25.72 35H26.34V34ZM22.14 25.54L23.0357 25.0953L22.76 24.54H22.14V25.54ZM17.97 25.54V24.54H16.97V25.54H17.97ZM25.38 22.03L26.0557 22.7672L26.0639 22.7597L26.0719 22.752L25.38 22.03ZM25.38 16.72L24.6881 17.442L24.6961 17.4497L24.7043 17.4572L25.38 16.72ZM17.97 16.03V15.03H16.97V16.03H17.97ZM17.97 22.69H16.97V23.69H17.97V22.69ZM17.97 33H14.58V35H17.97V33ZM15.58 34V13.06H13.58V34H15.58ZM14.58 14.06H23.61V12.06H14.58V14.06ZM23.61 14.06C25.2739 14.06 26.4697 14.5559 27.324 15.4577L28.776 14.0823C27.4703 12.7041 25.7061 12.06 23.61 12.06V14.06ZM27.3302 15.4641C28.1886 16.3544 28.67 17.6117 28.67 19.36H30.67C30.67 17.2283 30.0714 15.4256 28.7698 14.0759L27.3302 15.4641ZM28.67 19.36C28.67 20.7024 28.3585 21.7398 27.8008 22.5365L29.4392 23.6835C30.2815 22.4802 30.67 21.0176 30.67 19.36H28.67ZM27.7984 22.5399C27.2692 23.3026 26.4657 23.875 25.304 24.2218L25.876 26.1382C27.3943 25.685 28.6108 24.8774 29.4416 23.6801L27.7984 22.5399ZM24.7005 25.6369L29.2305 34.4569L31.0095 33.5431L26.4795 24.7231L24.7005 25.6369ZM30.12 33H26.34V35H30.12V33ZM27.2357 33.5553L23.0357 25.0953L21.2443 25.9847L25.4443 34.4447L27.2357 33.5553ZM22.14 24.54H17.97V26.54H22.14V24.54ZM16.97 25.54V34H18.97V25.54H16.97ZM23.37 23.69C24.3981 23.69 25.3386 23.4245 26.0557 22.7672L24.7043 21.2928C24.4614 21.5155 24.0619 21.69 23.37 21.69V23.69ZM26.0719 22.752C26.7976 22.0565 27.1 21.1165 27.1 20.08H25.1C25.1 20.7235 24.9224 21.0835 24.6881 21.308L26.0719 22.752ZM27.1 20.08V18.64H25.1V20.08H27.1ZM27.1 18.64C27.1 17.6058 26.7983 16.6635 26.0557 15.9828L24.7043 17.4572C24.9217 17.6565 25.1 17.9942 25.1 18.64H27.1ZM26.0719 15.998C25.3559 15.3118 24.4093 15.03 23.37 15.03V17.03C24.0507 17.03 24.4441 17.2082 24.6881 17.442L26.0719 15.998ZM23.37 15.03H17.97V17.03H23.37V15.03ZM16.97 16.03V22.69H18.97V16.03H16.97ZM17.97 23.69H23.37V21.69H17.97V23.69Z" fill="#282828"/>
<path d="M15.97 32H12.58V11.06H21.61C23.49 11.06 24.97 11.63 26.05 12.77C27.13 13.89 27.67 15.42 27.67 17.36C27.67 18.86 27.32 20.11 26.62 21.11C25.94 22.09 24.93 22.78 23.59 23.18L28.12 32H24.34L20.14 23.54H15.97V32ZM21.37 20.69C22.23 20.69 22.9 20.47 23.38 20.03C23.86 19.57 24.1 18.92 24.1 18.08V16.64C24.1 15.8 23.86 15.16 23.38 14.72C22.9 14.26 22.23 14.03 21.37 14.03H15.97V20.69H21.37Z" fill="white"/>
<path d="M15.97 32V33H16.97V32H15.97ZM12.58 32H11.58V33H12.58V32ZM12.58 11.06V10.06H11.58V11.06H12.58ZM26.05 12.77L25.324 13.4578L25.3302 13.4641L26.05 12.77ZM26.62 21.11L25.8008 20.5365L25.7984 20.5399L26.62 21.11ZM23.59 23.18L23.304 22.2218L22.1505 22.5661L22.7005 23.6369L23.59 23.18ZM28.12 32V33H29.7578L29.0095 31.5431L28.12 32ZM24.34 32L23.4443 32.4447L23.72 33H24.34V32ZM20.14 23.54L21.0357 23.0953L20.76 22.54H20.14V23.54ZM15.97 23.54V22.54H14.97V23.54H15.97ZM23.38 20.03L24.0557 20.7672L24.0639 20.7597L24.0719 20.752L23.38 20.03ZM23.38 14.72L22.6881 15.442L22.6961 15.4497L22.7043 15.4572L23.38 14.72ZM15.97 14.03V13.03H14.97V14.03H15.97ZM15.97 20.69H14.97V21.69H15.97V20.69ZM15.97 31H12.58V33H15.97V31ZM13.58 32V11.06H11.58V32H13.58ZM12.58 12.06H21.61V10.06H12.58V12.06ZM21.61 12.06C23.2739 12.06 24.4697 12.5559 25.324 13.4577L26.776 12.0823C25.4703 10.7041 23.7061 10.06 21.61 10.06V12.06ZM25.3302 13.4641C26.1886 14.3544 26.67 15.6117 26.67 17.36H28.67C28.67 15.2283 28.0714 13.4256 26.7698 12.0759L25.3302 13.4641ZM26.67 17.36C26.67 18.7024 26.3585 19.7398 25.8008 20.5365L27.4392 21.6835C28.2815 20.4802 28.67 19.0176 28.67 17.36H26.67ZM25.7984 20.5399C25.2692 21.3026 24.4657 21.875 23.304 22.2218L23.876 24.1382C25.3943 23.685 26.6108 22.8774 27.4416 21.6801L25.7984 20.5399ZM22.7005 23.6369L27.2305 32.4569L29.0095 31.5431L24.4795 22.7231L22.7005 23.6369ZM28.12 31H24.34V33H28.12V31ZM25.2357 31.5553L21.0357 23.0953L19.2443 23.9847L23.4443 32.4447L25.2357 31.5553ZM20.14 22.54H15.97V24.54H20.14V22.54ZM14.97 23.54V32H16.97V23.54H14.97ZM21.37 21.69C22.3981 21.69 23.3386 21.4245 24.0557 20.7672L22.7043 19.2928C22.4614 19.5155 22.0619 19.69 21.37 19.69V21.69ZM24.0719 20.752C24.7976 20.0565 25.1 19.1165 25.1 18.08H23.1C23.1 18.7235 22.9224 19.0835 22.6881 19.308L24.0719 20.752ZM25.1 18.08V16.64H23.1V18.08H25.1ZM25.1 16.64C25.1 15.6058 24.7983 14.6635 24.0557 13.9828L22.7043 15.4572C22.9217 15.6565 23.1 15.9942 23.1 16.64H25.1ZM24.0719 13.998C23.3559 13.3118 22.4093 13.03 21.37 13.03V15.03C22.0507 15.03 22.4441 15.2082 22.6881 15.442L24.0719 13.998ZM21.37 13.03H15.97V15.03H21.37V13.03ZM14.97 14.03V20.69H16.97V14.03H14.97ZM15.97 21.69H21.37V19.69H15.97V21.69Z" fill="#282828"/>
</g>
<defs>
<clipPath id="clip0_22_54">
<rect width="43" height="43" fill="white"/>
</clipPath>
</defs>
</svg>
